<?xml version="1.0" encoding="utf-8"?>
<!-- Generator: Adobe Illustrator 27.0.1, SVG Export Plug-In . SVG Version: 6.00 Build 0)  -->
<svg version="1.1" id="Layer_1" xmlns="http://www.w3.org/2000/svg" xmlns:xlink="http://www.w3.org/1999/xlink" x="0px" y="0px"
	 viewBox="0 0 432.5 42.9" style="enable-background:new 0 0 432.5 42.9;" xml:space="preserve">
<style type="text/css">
	.st0{fill:#2A3581;}
	.st1{fill:#020202;}
	.st2{fill:#F79E1D;}
	.st3{fill:#E91D25;}
	.st4{fill:#F16122;}
	.st5{fill:#2BBDEE;}
	.st6{fill:#7F81BE;}
	.st7{fill:#606469;}
	.st8{fill:#EA4536;}
	.st9{fill:#36A852;}
	.st10{fill:#557EBF;}
	.st11{fill:#F9BB17;}
</style>
<g>
	<path class="st0" d="M149.2,11.3c-1.1-0.4-2.9-0.9-5.2-0.9c-5.7,0-9.7,2.9-9.7,7c0,3,2.9,4.7,5,5.7c2.2,1,3,1.7,3,2.6
		c0,1.4-1.8,2-3.4,2c-2.3,0-3.5-0.3-5.4-1.1l-0.7-0.3l-0.8,4.7c1.4,0.6,3.9,1.1,6.4,1.1c6.1,0,10-2.9,10.1-7.2
		c0.1-2.4-1.5-4.2-4.8-5.8c-2-1-3.2-1.6-3.2-2.6c0-0.9,1.1-1.8,3.3-1.8c1.9,0,3.2,0.4,4.3,0.8l0.5,0.2l0.8-4.6L149.2,11.3
		L149.2,11.3z M164,10.8h-4.4c-1.4,0-2.4,0.4-3,1.8L148,32h6.1l1.2-3.2h7.4c0.2,0.8,0.7,3.2,0.7,3.2h5.3L164,10.8L164,10.8z
		 M126.2,10.6h5.8l-3.6,21.1h-5.8L126.2,10.6L126.2,10.6L126.2,10.6z M111.5,22.3l0.6,2.9l5.6-14.4h6.1l-9.1,21.1h-6.1l-5-17.9
		c-0.1-0.3-0.2-0.5-0.5-0.7c-1.7-0.9-3.6-1.6-5.7-2.1l0.1-0.4h9.3c1.3,0.1,2.3,0.4,2.6,1.8L111.5,22.3L111.5,22.3L111.5,22.3z
		 M156.9,24.4l2.3-5.9c0,0.1,0.5-1.2,0.8-2l0.4,1.8l1.3,6.1L156.9,24.4L156.9,24.4z"/>
	<path class="st1" d="M281.9,13.3c-0.6,0.7-1.6,1.3-2.6,1.2c-0.1-1,0.4-2.1,0.9-2.7c0.6-0.8,1.7-1.3,2.6-1.3
		C282.9,11.5,282.5,12.5,281.9,13.3L281.9,13.3L281.9,13.3z M282.8,14.7c-1.4-0.1-2.7,0.8-3.3,0.8s-1.7-0.8-2.9-0.8
		c-1.5,0-2.8,0.9-3.6,2.2c-1.5,2.7-0.4,6.7,1.1,8.9c0.7,1.1,1.6,2.3,2.8,2.2c1.1,0,1.5-0.7,2.8-0.7s1.7,0.7,2.9,0.7
		c1.2,0,1.9-1.1,2.7-2.2c0.8-1.2,1.2-2.4,1.2-2.5c0,0-2.3-0.9-2.3-3.6c0-2.2,1.8-3.3,1.9-3.4C284.9,14.9,283.3,14.8,282.8,14.7
		L282.8,14.7L282.8,14.7z M291,11.7v16.2h2.5v-5.5h3.5c3.1,0,5.4-2.2,5.4-5.4s-2.2-5.3-5.3-5.3L291,11.7L291,11.7z M293.5,13.8h2.9
		c2.2,0,3.4,1.2,3.4,3.2s-1.2,3.2-3.4,3.2h-2.9L293.5,13.8L293.5,13.8z M306.9,28.1c1.6,0,3-0.8,3.7-2.1h0v2h2.3v-8.1
		c0-2.3-1.9-3.9-4.7-3.9c-2.6,0-4.6,1.5-4.7,3.6h2.2c0.2-1,1.1-1.6,2.4-1.6c1.5,0,2.4,0.7,2.4,2v0.9l-3.1,0.2
		c-2.9,0.2-4.5,1.4-4.5,3.5S304.6,28.1,306.9,28.1L306.9,28.1L306.9,28.1z M307.6,26.1c-1.3,0-2.2-0.6-2.2-1.6s0.8-1.6,2.4-1.7
		l2.8-0.2v0.9C310.5,25,309.3,26.1,307.6,26.1L307.6,26.1z M316,32.3c2.4,0,3.6-0.9,4.6-3.8l4.4-12.4h-2.5l-2.9,9.6h0l-2.9-9.6h-2.6
		l4.2,11.8l-0.2,0.7c-0.4,1.2-1,1.7-2.1,1.7c-0.2,0-0.6,0-0.7,0v1.9C315.2,32.3,315.9,32.4,316,32.3L316,32.3L316,32.3z"/>
	<g>
		<path class="st2" d="M57.1,10.5c-2.5,0-4.9,0.9-6.8,2.3c2.6,2,4.2,5.2,4.2,8.7s-1.7,6.7-4.2,8.7c1.9,1.5,4.2,2.3,6.8,2.3
			c6.1,0,11-4.9,11-11S63.2,10.5,57.1,10.5z"/>
		<path class="st3" d="M46.1,21.5c0-3.5,1.7-6.7,4.2-8.7c-1.9-1.4-4.2-2.3-6.8-2.3c-6.1,0-11,4.9-11,11s4.9,11,11,11
			c2.5,0,4.9-0.9,6.8-2.3C47.8,28.2,46.1,25.1,46.1,21.5z"/>
		<path class="st4" d="M54.6,21.5c0-3.5-1.7-6.7-4.2-8.7c-2.6,2-4.2,5.2-4.2,8.7s1.7,6.7,4.2,8.7C53,28.2,54.6,25.1,54.6,21.5z"/>
	</g>
	<g>
		<path class="st5" d="M222.8,10.1c-2.6,0-5,0.9-6.9,2.4c2.6,2.1,4.4,5.3,4.4,8.9s-1.7,6.8-4.4,8.9c1.9,1.5,4.3,2.4,6.9,2.4
			c6.2,0,11.2-5,11.2-11.2S229,10,222.8,10.1z"/>
		<path class="st3" d="M211.5,21.3c0-3.6,1.7-6.8,4.4-8.9c-1.9-1.5-4.3-2.4-6.9-2.4c-6.2,0-11.2,5-11.2,11.2s5,11.2,11.2,11.2
			c2.6,0,5-0.9,6.9-2.4C213.2,28.1,211.5,24.9,211.5,21.3z"/>
		<path class="st6" d="M220.2,21.3c0-3.6-1.7-6.8-4.4-8.9c-2.6,2.1-4.4,5.3-4.4,8.9s1.7,6.8,4.4,8.9
			C218.5,28.1,220.2,24.9,220.2,21.3z"/>
	</g>
	<g>
		<path class="st7" d="M372.9,21.3c0-2.2,0-4.5,0-6.7c0-0.1,0-0.1,0.1-0.1c1.5,0,3,0,4.5,0c1.4,0,2.5,0.5,3.5,1.5
			c0.5,0.5,0.8,1.2,0.9,1.9c0.1,0.8,0,1.6-0.3,2.4c-0.4,0.8-1,1.4-1.8,1.9c-0.7,0.4-1.4,0.5-2.2,0.5c-0.9,0-1.8,0-2.7-0.1
			c-0.1,0-0.1,0-0.1,0.1c0,1.8,0,3.5,0,5.3c0,0.1,0,0.1-0.1,0.1c-0.5,0-1.1,0-1.6,0c-0.1,0-0.1,0-0.1-0.1
			C372.9,25.8,372.9,23.5,372.9,21.3L372.9,21.3z M374.7,18.5c0,0.8,0,1.5,0,2.3c0,0.1,0,0.1,0.1,0.1c1,0,1.9,0,2.9,0
			c0.2,0,0.4,0,0.5,0c0.6-0.1,1-0.4,1.4-0.8c0.5-0.6,0.7-1.2,0.5-1.9c-0.2-0.9-0.8-1.5-1.6-1.9c-0.3-0.1-0.5-0.1-0.8-0.1
			c-0.9,0-1.9,0-2.8,0c-0.1,0-0.1,0-0.1,0.1C374.7,17,374.7,17.7,374.7,18.5z"/>
		<path class="st7" d="M390.2,25c0,1,0,2,0,3c0,0.1,0,0.1-0.1,0.1c-0.5,0-1,0-1.5,0c-0.1,0-0.1,0-0.1-0.1c0-0.4,0-0.8,0-1.1
			c0,0,0-0.1,0-0.1c0,0-0.1,0-0.1,0.1c-0.4,0.6-0.9,1-1.5,1.3c-0.5,0.2-1,0.3-1.5,0.3c-0.6,0-1.2-0.1-1.7-0.4
			c-1-0.5-1.6-1.2-1.8-2.3c-0.2-1.3,0.3-2.5,1.5-3.2c0.5-0.3,1.1-0.4,1.7-0.5c0.5,0,1,0,1.5,0c0.6,0.1,1.2,0.2,1.7,0.5
			c0,0,0.1,0.1,0.1,0c0-0.4,0-0.8-0.1-1.1c-0.2-0.4-0.5-0.7-0.9-1c-0.6-0.4-1.3-0.5-2-0.4c-0.7,0.1-1.3,0.5-1.7,1.1
			c0,0.1-0.1,0.1-0.1,0c-0.5-0.3-0.9-0.6-1.4-0.9c-0.1,0-0.1-0.1,0-0.1c0.8-1,1.7-1.5,2.9-1.7c0.9-0.1,1.8-0.1,2.6,0.2
			c1.1,0.4,1.9,1.1,2.3,2.2c0.2,0.5,0.2,1,0.2,1.5C390.2,23.3,390.2,24.2,390.2,25L390.2,25z M386.2,23.5c-0.8,0-1.4,0.2-2,0.6
			c-0.7,0.5-0.8,1.6-0.1,2.2c0.6,0.5,1.4,0.7,2.2,0.5c0.7-0.2,1.2-0.6,1.6-1.1c0.3-0.4,0.5-0.9,0.5-1.4c0-0.1,0-0.1-0.1-0.1
			c-0.2-0.1-0.4-0.2-0.5-0.3C387.4,23.5,386.8,23.5,386.2,23.5L386.2,23.5z"/>
		<path class="st8" d="M353.1,17.6c0.1-0.3,0.3-0.5,0.5-0.8c1.2-1.7,2.8-2.8,4.8-3.3c0.8-0.2,1.7-0.2,2.6-0.2
			c1.3,0.1,2.5,0.6,3.5,1.3c0.3,0.2,0.6,0.4,0.9,0.7c0,0,0.1,0.1,0,0.1c-0.7,0.7-1.4,1.4-2.1,2.1c0,0-0.1,0-0.1,0
			c-0.6-0.5-1.3-0.9-2.1-1c-1.1-0.2-2.1,0-3.1,0.5c-1.1,0.6-1.8,1.5-2.1,2.6c0,0.1,0,0.1-0.1,0c-0.4-0.3-0.7-0.6-1.1-0.9
			C354.1,18.4,353.6,18.1,353.1,17.6C353.1,17.7,353.1,17.7,353.1,17.6L353.1,17.6z"/>
		<path class="st7" d="M399.8,18.9c0,0.1,0,0.1-0.1,0.2c-1.9,4.4-3.8,8.8-5.7,13.1c0,0.1-0.1,0.1-0.2,0.1c-0.5,0-1.1,0-1.7,0
			c0,0,0-0.1,0-0.1c0.7-1.5,1.4-3,2.1-4.5c0-0.1,0-0.1,0-0.2c-1.3-2.8-2.5-5.7-3.8-8.5c0-0.1,0-0.1,0.1-0.1c0.6,0,1.1,0,1.7,0
			c0.1,0,0.1,0,0.1,0.1c0.9,2.2,1.8,4.4,2.7,6.5c0,0,0,0.1,0.1,0.1c0.1,0,0.1-0.1,0.1-0.1c0.9-2.2,1.8-4.4,2.7-6.5
			c0,0,0-0.1,0.1-0.1C398.6,18.9,399.2,18.9,399.8,18.9C399.8,18.9,399.8,18.9,399.8,18.9L399.8,18.9z"/>
		<path class="st9" d="M355.7,22.7c0.1,0.3,0.2,0.6,0.4,1c0.8,1.2,1.8,2,3.3,2.3c1.2,0.2,2.3,0,3.3-0.7c0,0,0,0,0.1,0
			c0,0,0,0,0.1,0.1c0.8,0.6,1.6,1.3,2.5,1.9c-0.4,0.4-0.8,0.7-1.3,0.9c-0.9,0.5-1.8,0.8-2.7,0.9c-0.9,0.1-1.8,0.1-2.6,0
			c-1.4-0.2-2.6-0.8-3.6-1.7c-0.8-0.7-1.5-1.5-2-2.5c0,0,0,0,0-0.1c0,0,0,0,0.1,0C354,24,354.8,23.4,355.7,22.7L355.7,22.7z"/>
		<path class="st10" d="M365.3,27.2c-0.8-0.6-1.6-1.3-2.5-1.9c0,0,0,0-0.1-0.1c0.3-0.2,0.6-0.5,0.9-0.9c0.3-0.4,0.5-0.9,0.6-1.4
			c0-0.1,0-0.1-0.1-0.1c-0.5,0-1.1,0-1.6,0c-0.8,0-1.6,0-2.4,0c-0.1,0-0.1,0-0.1-0.1c0-0.9,0-1.9,0-2.8c0-0.1,0-0.1,0.1-0.1
			c2.4,0,4.8,0,7.2,0c0.1,0,0.1,0,0.1,0.1c0.1,0.6,0.1,1.1,0.1,1.7c0,1.3-0.3,2.6-0.9,3.7C366.4,26,365.9,26.6,365.3,27.2
			C365.3,27.1,365.3,27.1,365.3,27.2L365.3,27.2z"/>
		<path class="st11" d="M355.7,22.7c-0.9,0.7-1.7,1.3-2.5,2c0,0,0,0-0.1,0c-0.3-0.5-0.5-1.1-0.6-1.7c-0.2-0.8-0.3-1.5-0.2-2.3
			c0.1-1.1,0.3-2.1,0.8-3c0,0,0.1-0.1,0.1-0.1c0,0,0,0.1,0,0.1c0.5,0.4,0.9,0.7,1.4,1.1c0.4,0.3,0.7,0.6,1.1,0.9
			c-0.2,0.5-0.3,1.1-0.3,1.6c0,0.4,0.1,0.9,0.2,1.3C355.7,22.6,355.7,22.7,355.7,22.7L355.7,22.7z"/>
	</g>
</g>
</svg>
